# xmcd
#
# Track frame offsets:
# 150
# 15492
# 27515
# 41727
# 55267
# 91365
# 111837
# 132442
# 145942
# 157030
#
# Disc length: 2346 seconds
#
# Revision: 0
# Processed by: cddbd v1.5.1PL0 Copyright (c) Steve Scherf et al.
# Submitted via: MacMP3 Pro 5.0 (http://mp3.act2.co.jp/)
#
DISCID=8809280a
DTITLE=Rory Block - Mama's Blues
DYEAR=1900
DGENRE=
TTITLE0=Terraplane Blues
TTITLE1=Bye Bye Blues
TTITLE2=Big Road Blues 
TTITLE3=Do Your Duty
TTITLE4=Spirit Returns
TTITLE5=Got to Shine 
TTITLE6=Mama's Blues 
TTITLE7=Ain't No Shame
TTITLE8=Hawkins Blues
TTITLE9=Weepin' Willow Blues
EXTD=
EXTT0=
EXTT1=
EXTT2=
EXTT3=
EXTT4=
EXTT5=
EXTT6=
EXTT7=
EXTT8=
EXTT9=
PLAYORDER=
